<svg height="447pt" viewBox="0 0 447.23831 447" width="447pt" xmlns="http://www.w3.org/2000/svg"><path d="m221.066406 316.0625c53.191406 0 58.664063 12.449219 102.242188 14.953125-6.007813-55.757813-75.863282-99.78125-161.359375-99.78125-78.039063 0-143.15625 36.65625-158.5 85.449219 41.054687 2.867187 47.332031 14.800781 99.363281 14.800781 59.128906 0 59.128906-15.421875 118.253906-15.421875zm0 0" fill="#d3843d"/><path d="m221.066406 346.910156c-59.125 0-59.125 15.421875-118.253906 15.421875-53.152344 0-58.648438-12.433593-102.15625-14.949219 6.625 55.351563 76.230469 98.921876 161.292969 98.921876 77.582031 0 142.34375-36.246094 158.171875-84.613282-40.78125-2.898437-47.144532-14.78125-99.054688-14.78125zm0 0" fill="#d3843d"/><path d="m385.589844 61.570312c-54.683594-54.683593-127.304688-74.933593-173.1875-52.375 26.203125 29.6875 23.03125 42.769532 59.816406 78.441407 42.425781 41.136719 53.160156 30.066406 95.585938 71.203125 39.128906 37.945312 33.128906 50.363281 65.234374 84.335937 29.890626-44.976562 10.742188-123.414062-47.449218-181.605469zm0 0" fill="#d3843d"/><path d="m249.082031 110.769531c-37.800781-36.65625-33.457031-49.484375-62.105469-80.964843-34.253906 44.109374-15.738281 125.886718 44.378907 186.003906 56.609375 56.609375 132.382812 76.257812 177.867187 49.769531-31.316406-33.410156-25.710937-45.9375-64.554687-83.601563-42.421875-41.140624-53.160157-30.066406-95.585938-71.207031zm0 0" fill="#d3843d"/><g fill="#66342e"><path d="m221.066406 346.910156c51.910156 0 58.273438 11.882813 99.054688 14.785156 2.46875-7.394531 3.742187-15.132812 3.777344-22.925781-.058594-2.59375-.253907-5.179687-.589844-7.753906-43.578125-2.507813-49.050782-14.953125-102.242188-14.953125-59.125 0-59.125 15.425781-118.253906 15.425781-52.03125 0-58.308594-11.9375-99.363281-14.800781-2.269531 7.140625-3.433594 14.585938-3.449219 22.082031.046875 2.882813.265625 5.757813.65625 8.613281 43.507812 2.515626 49.003906 14.953126 102.15625 14.953126 59.128906-.003907 59.128906-15.425782 118.253906-15.425782zm0 0"/><path d="m77.109375 404.265625c-1.230469.003906-2.445313-.292969-3.539063-.859375-3.5625-1.851562-6.949218-3.789062-10.160156-5.8125-3.597656-2.277344-4.664062-7.042969-2.386718-10.640625 2.269531-3.582031 7.007812-4.660156 10.601562-2.410156 2.855469 1.796875 5.867188 3.515625 9.039062 5.164062 3.78125 1.957031 5.261719 6.609375 3.304688 10.394531-1.328125 2.5625-3.972656 4.167969-6.859375 4.164063zm0 0"/><path d="m161.949219 423.171875c-21.738281.160156-43.363281-3.105469-64.082031-9.679687-4.046876-1.324219-6.253907-5.679688-4.925782-9.726563 1.320313-4.035156 5.660156-6.242187 9.699219-4.9375 19.179687 6.070313 39.191406 9.082031 59.308594 8.917969 39.796875 0 76.449219-11.148438 100.550781-30.59375 3.316406-2.675782 8.171875-2.15625 10.84375 1.160156 2.675781 3.3125 2.15625 8.167969-1.160156 10.84375-26.796875 21.617188-66.976563 34.015625-110.234375 34.015625zm0 0"/><path d="m205.382812 123.269531c-3.457031-.003906-6.488281-2.304687-7.421874-5.636719-.957032-3.421874-1.765626-6.796874-2.4375-10.128906-.835938-4.175781 1.875-8.238281 6.050781-9.074218 4.175781-.835938 8.238281 1.871093 9.074219 6.046874.589843 2.957032 1.3125 5.957032 2.164062 9 1.144531 4.113282-1.265625 8.371094-5.375 9.511719-.667969.1875-1.359375.28125-2.054688.28125zm0 0"/><path d="m356.335938 253.894531c-.15625 0-.320313-.003906-.480469-.015625-35.839844-2.207031-76.265625-22.554687-108.140625-54.429687-15.710938-15.53125-28.78125-33.523438-38.691406-53.269531-1.882813-3.820313-.3125-8.445313 3.511718-10.324219 3.808594-1.875 8.414063-.320313 10.304688 3.476562 9.171875 18.242188 21.257812 34.863281 35.78125 49.210938 28.847656 28.851562 66.46875 47.988281 98.183594 49.941406 4.25.269531 7.476562 3.933594 7.207031 8.183594-.253907 4.054687-3.613281 7.214843-7.675781 7.226562zm0 0"/><path d="m433.039062 243.175781c-32.105468-33.972656-26.105468-46.390625-65.234374-84.332031-42.425782-41.140625-53.160157-30.070312-95.585938-71.207031-36.785156-35.671875-33.613281-48.753907-59.816406-78.441407-7.253906 3.492188-13.878906 8.164063-19.605469 13.816407-2.078125 2.140625-4.023437 4.410156-5.816406 6.796875 28.644531 31.476562 24.304687 44.308594 62.105469 80.964844 42.421874 41.136718 53.160156 30.066406 95.585937 71.203124 38.839844 37.667969 33.238281 50.195313 64.550781 83.601563 9.699219-5.34375 17.886719-13.050781 23.816406-22.402344zm0 0"/></g></svg>